<mxfile host="app.diagrams.net" modified="2023-04-25T13:27:04.095Z" agent="Mozilla/5.0 (Windows NT 10.0; Win64; x64) AppleWebKit/537.36 (KHTML, like Gecko) Chrome/112.0.0.0 Safari/537.36" etag="3mCOgVq0r3qQahO0fbgs" version="21.2.1" type="github">
  <diagram name="Page-1" id="2YBvvXClWsGukQMizWep">
    <mxGraphModel dx="1050" dy="581" grid="1" gridSize="10" guides="1" tooltips="1" connect="1" arrows="1" fold="1" page="1" pageScale="1" pageWidth="850" pageHeight="1100" math="0" shadow="0">
      <root>
        <mxCell id="0" />
        <mxCell id="1" parent="0" />
        <mxCell id="aM9ryv3xv72pqoxQDRHE-1" value=":Object" style="shape=umlLifeline;perimeter=lifelinePerimeter;whiteSpace=wrap;html=1;container=0;dropTarget=0;collapsible=0;recursiveResize=0;outlineConnect=0;portConstraint=eastwest;newEdgeStyle={&quot;edgeStyle&quot;:&quot;elbowEdgeStyle&quot;,&quot;elbow&quot;:&quot;vertical&quot;,&quot;curved&quot;:0,&quot;rounded&quot;:0};" parent="1" vertex="1">
          <mxGeometry x="40" y="40" width="100" height="300" as="geometry" />
        </mxCell>
        <mxCell id="aM9ryv3xv72pqoxQDRHE-2" value="" style="html=1;points=[];perimeter=orthogonalPerimeter;outlineConnect=0;targetShapes=umlLifeline;portConstraint=eastwest;newEdgeStyle={&quot;edgeStyle&quot;:&quot;elbowEdgeStyle&quot;,&quot;elbow&quot;:&quot;vertical&quot;,&quot;curved&quot;:0,&quot;rounded&quot;:0};" parent="aM9ryv3xv72pqoxQDRHE-1" vertex="1">
          <mxGeometry x="45" y="70" width="10" height="190" as="geometry" />
        </mxCell>
        <mxCell id="aM9ryv3xv72pqoxQDRHE-3" value="dispatch" style="html=1;verticalAlign=bottom;startArrow=oval;endArrow=block;startSize=8;edgeStyle=elbowEdgeStyle;elbow=vertical;curved=0;rounded=0;" parent="aM9ryv3xv72pqoxQDRHE-1" target="aM9ryv3xv72pqoxQDRHE-2" edge="1">
          <mxGeometry relative="1" as="geometry">
            <mxPoint x="-15" y="70" as="sourcePoint" />
          </mxGeometry>
        </mxCell>
        <mxCell id="aM9ryv3xv72pqoxQDRHE-4" value="" style="html=1;points=[];perimeter=orthogonalPerimeter;outlineConnect=0;targetShapes=umlLifeline;portConstraint=eastwest;newEdgeStyle={&quot;edgeStyle&quot;:&quot;elbowEdgeStyle&quot;,&quot;elbow&quot;:&quot;vertical&quot;,&quot;curved&quot;:0,&quot;rounded&quot;:0};" parent="aM9ryv3xv72pqoxQDRHE-1" vertex="1">
          <mxGeometry x="50" y="120" width="10" height="80" as="geometry" />
        </mxCell>
        <mxCell id="aM9ryv3xv72pqoxQDRHE-5" value=":Object" style="shape=umlLifeline;perimeter=lifelinePerimeter;whiteSpace=wrap;html=1;container=0;dropTarget=0;collapsible=0;recursiveResize=0;outlineConnect=0;portConstraint=eastwest;newEdgeStyle={&quot;edgeStyle&quot;:&quot;elbowEdgeStyle&quot;,&quot;elbow&quot;:&quot;vertical&quot;,&quot;curved&quot;:0,&quot;rounded&quot;:0};" parent="1" vertex="1">
          <mxGeometry x="220" y="40" width="100" height="300" as="geometry" />
        </mxCell>
        <mxCell id="aM9ryv3xv72pqoxQDRHE-6" value="" style="html=1;points=[];perimeter=orthogonalPerimeter;outlineConnect=0;targetShapes=umlLifeline;portConstraint=eastwest;newEdgeStyle={&quot;edgeStyle&quot;:&quot;elbowEdgeStyle&quot;,&quot;elbow&quot;:&quot;vertical&quot;,&quot;curved&quot;:0,&quot;rounded&quot;:0};" parent="aM9ryv3xv72pqoxQDRHE-5" vertex="1">
          <mxGeometry x="45" y="80" width="10" height="170" as="geometry" />
        </mxCell>
        <mxCell id="aM9ryv3xv72pqoxQDRHE-7" value="dispatch" style="html=1;verticalAlign=bottom;endArrow=block;edgeStyle=elbowEdgeStyle;elbow=vertical;curved=0;rounded=0;" parent="1" source="aM9ryv3xv72pqoxQDRHE-2" target="aM9ryv3xv72pqoxQDRHE-6" edge="1">
          <mxGeometry relative="1" as="geometry">
            <mxPoint x="195" y="130" as="sourcePoint" />
            <Array as="points">
              <mxPoint x="180" y="120" />
            </Array>
          </mxGeometry>
        </mxCell>
        <mxCell id="aM9ryv3xv72pqoxQDRHE-8" value="return" style="html=1;verticalAlign=bottom;endArrow=open;dashed=1;endSize=8;edgeStyle=elbowEdgeStyle;elbow=vertical;curved=0;rounded=0;" parent="1" source="aM9ryv3xv72pqoxQDRHE-6" target="aM9ryv3xv72pqoxQDRHE-2" edge="1">
          <mxGeometry relative="1" as="geometry">
            <mxPoint x="195" y="205" as="targetPoint" />
            <Array as="points">
              <mxPoint x="190" y="280" />
            </Array>
          </mxGeometry>
        </mxCell>
        <mxCell id="aM9ryv3xv72pqoxQDRHE-9" value="callback" style="html=1;verticalAlign=bottom;endArrow=block;edgeStyle=elbowEdgeStyle;elbow=vertical;curved=0;rounded=0;" parent="1" source="aM9ryv3xv72pqoxQDRHE-6" target="aM9ryv3xv72pqoxQDRHE-4" edge="1">
          <mxGeometry relative="1" as="geometry">
            <mxPoint x="175" y="160" as="sourcePoint" />
            <Array as="points">
              <mxPoint x="190" y="160" />
            </Array>
          </mxGeometry>
        </mxCell>
        <mxCell id="aM9ryv3xv72pqoxQDRHE-10" value="return" style="html=1;verticalAlign=bottom;endArrow=open;dashed=1;endSize=8;edgeStyle=elbowEdgeStyle;elbow=vertical;curved=0;rounded=0;" parent="1" source="aM9ryv3xv72pqoxQDRHE-4" target="aM9ryv3xv72pqoxQDRHE-6" edge="1">
          <mxGeometry relative="1" as="geometry">
            <mxPoint x="175" y="235" as="targetPoint" />
            <Array as="points">
              <mxPoint x="180" y="230" />
            </Array>
          </mxGeometry>
        </mxCell>
        <mxCell id="XZzwt_6UTUMo6Vn4I3hD-1" value=":ML agent" style="shape=umlLifeline;perimeter=lifelinePerimeter;whiteSpace=wrap;html=1;container=0;dropTarget=0;collapsible=0;recursiveResize=0;outlineConnect=0;portConstraint=eastwest;newEdgeStyle={&quot;edgeStyle&quot;:&quot;elbowEdgeStyle&quot;,&quot;elbow&quot;:&quot;vertical&quot;,&quot;curved&quot;:0,&quot;rounded&quot;:0};fillColor=#dae8fc;strokeColor=#6c8ebf;fontSize=16;" parent="1" vertex="1">
          <mxGeometry x="100" y="500" width="100" height="730" as="geometry" />
        </mxCell>
        <mxCell id="XZzwt_6UTUMo6Vn4I3hD-3" value="" style="html=1;verticalAlign=bottom;startArrow=oval;endArrow=block;startSize=8;edgeStyle=elbowEdgeStyle;elbow=vertical;curved=0;rounded=0;fontSize=16;" parent="XZzwt_6UTUMo6Vn4I3hD-1" target="XZzwt_6UTUMo6Vn4I3hD-2" edge="1">
          <mxGeometry relative="1" as="geometry">
            <mxPoint x="-15" y="70" as="sourcePoint" />
          </mxGeometry>
        </mxCell>
        <mxCell id="XZzwt_6UTUMo6Vn4I3hD-2" value="" style="html=1;points=[];perimeter=orthogonalPerimeter;outlineConnect=0;targetShapes=umlLifeline;portConstraint=eastwest;newEdgeStyle={&quot;edgeStyle&quot;:&quot;elbowEdgeStyle&quot;,&quot;elbow&quot;:&quot;vertical&quot;,&quot;curved&quot;:0,&quot;rounded&quot;:0};fillColor=#fff2cc;strokeColor=#d6b656;" parent="XZzwt_6UTUMo6Vn4I3hD-1" vertex="1">
          <mxGeometry x="45" y="70" width="10" height="660" as="geometry" />
        </mxCell>
        <mxCell id="XZzwt_6UTUMo6Vn4I3hD-5" value="&lt;font style=&quot;font-size: 14px;&quot;&gt;:Manufacturing Plant&lt;/font&gt;" style="shape=umlLifeline;perimeter=lifelinePerimeter;whiteSpace=wrap;html=1;container=0;dropTarget=0;collapsible=0;recursiveResize=0;outlineConnect=0;portConstraint=eastwest;newEdgeStyle={&quot;edgeStyle&quot;:&quot;elbowEdgeStyle&quot;,&quot;elbow&quot;:&quot;vertical&quot;,&quot;curved&quot;:0,&quot;rounded&quot;:0};fillColor=#dae8fc;strokeColor=#6c8ebf;fontSize=16;" parent="1" vertex="1">
          <mxGeometry x="300" y="500" width="100" height="740" as="geometry" />
        </mxCell>
        <mxCell id="XZzwt_6UTUMo6Vn4I3hD-6" value="" style="html=1;points=[];perimeter=orthogonalPerimeter;outlineConnect=0;targetShapes=umlLifeline;portConstraint=eastwest;newEdgeStyle={&quot;edgeStyle&quot;:&quot;elbowEdgeStyle&quot;,&quot;elbow&quot;:&quot;vertical&quot;,&quot;curved&quot;:0,&quot;rounded&quot;:0};fillColor=#fff2cc;strokeColor=#d6b656;fontSize=16;" parent="XZzwt_6UTUMo6Vn4I3hD-5" vertex="1">
          <mxGeometry x="45" y="104" width="10" height="60" as="geometry" />
        </mxCell>
        <mxCell id="XZzwt_6UTUMo6Vn4I3hD-7" value="get registered Data" style="html=1;verticalAlign=bottom;endArrow=block;edgeStyle=elbowEdgeStyle;elbow=vertical;curved=0;rounded=0;fontSize=16;" parent="1" target="XZzwt_6UTUMo6Vn4I3hD-6" edge="1">
          <mxGeometry relative="1" as="geometry">
            <mxPoint x="155" y="603.9999999999998" as="sourcePoint" />
            <Array as="points">
              <mxPoint x="240" y="604" />
            </Array>
          </mxGeometry>
        </mxCell>
        <mxCell id="XZzwt_6UTUMo6Vn4I3hD-9" value="callback" style="html=1;verticalAlign=bottom;endArrow=block;edgeStyle=elbowEdgeStyle;elbow=vertical;curved=0;rounded=0;" parent="1" edge="1">
          <mxGeometry relative="1" as="geometry">
            <mxPoint x="370" y="390" as="sourcePoint" />
            <Array as="points">
              <mxPoint x="350" y="390" />
              <mxPoint x="290" y="650" />
              <mxPoint x="250" y="620" />
            </Array>
            <mxPoint x="180" y="410" as="targetPoint" />
          </mxGeometry>
        </mxCell>
        <mxCell id="XZzwt_6UTUMo6Vn4I3hD-10" value="return" style="html=1;verticalAlign=bottom;endArrow=open;dashed=1;endSize=8;edgeStyle=elbowEdgeStyle;elbow=vertical;curved=0;rounded=0;" parent="1" edge="1">
          <mxGeometry relative="1" as="geometry">
            <mxPoint x="370" y="420" as="targetPoint" />
            <Array as="points">
              <mxPoint x="290" y="420" />
            </Array>
            <mxPoint x="220" y="420" as="sourcePoint" />
          </mxGeometry>
        </mxCell>
        <mxCell id="XZzwt_6UTUMo6Vn4I3hD-11" value=":Manager" style="shape=umlLifeline;perimeter=lifelinePerimeter;whiteSpace=wrap;html=1;container=0;dropTarget=0;collapsible=0;recursiveResize=0;outlineConnect=0;portConstraint=eastwest;newEdgeStyle={&quot;edgeStyle&quot;:&quot;elbowEdgeStyle&quot;,&quot;elbow&quot;:&quot;vertical&quot;,&quot;curved&quot;:0,&quot;rounded&quot;:0};fillColor=#dae8fc;strokeColor=#6c8ebf;fontSize=16;" parent="1" vertex="1">
          <mxGeometry x="470" y="500" width="100" height="750" as="geometry" />
        </mxCell>
        <mxCell id="XZzwt_6UTUMo6Vn4I3hD-12" value="" style="html=1;points=[];perimeter=orthogonalPerimeter;outlineConnect=0;targetShapes=umlLifeline;portConstraint=eastwest;newEdgeStyle={&quot;edgeStyle&quot;:&quot;elbowEdgeStyle&quot;,&quot;elbow&quot;:&quot;vertical&quot;,&quot;curved&quot;:0,&quot;rounded&quot;:0};fillColor=#fff2cc;strokeColor=#d6b656;fontSize=16;" parent="XZzwt_6UTUMo6Vn4I3hD-11" vertex="1">
          <mxGeometry x="45" y="244" width="10" height="190" as="geometry" />
        </mxCell>
        <mxCell id="XZzwt_6UTUMo6Vn4I3hD-13" value=":HW Device" style="shape=umlLifeline;perimeter=lifelinePerimeter;whiteSpace=wrap;html=1;container=0;dropTarget=0;collapsible=0;recursiveResize=0;outlineConnect=0;portConstraint=eastwest;newEdgeStyle={&quot;edgeStyle&quot;:&quot;elbowEdgeStyle&quot;,&quot;elbow&quot;:&quot;vertical&quot;,&quot;curved&quot;:0,&quot;rounded&quot;:0};fillColor=#dae8fc;strokeColor=#6c8ebf;fontSize=16;" parent="1" vertex="1">
          <mxGeometry x="670" y="500" width="100" height="760" as="geometry" />
        </mxCell>
        <mxCell id="XZzwt_6UTUMo6Vn4I3hD-14" value="" style="html=1;points=[];perimeter=orthogonalPerimeter;outlineConnect=0;targetShapes=umlLifeline;portConstraint=eastwest;newEdgeStyle={&quot;edgeStyle&quot;:&quot;elbowEdgeStyle&quot;,&quot;elbow&quot;:&quot;vertical&quot;,&quot;curved&quot;:0,&quot;rounded&quot;:0};fillColor=#fff2cc;strokeColor=#d6b656;fontSize=16;" parent="XZzwt_6UTUMo6Vn4I3hD-13" vertex="1">
          <mxGeometry x="45" y="244" width="10" height="190" as="geometry" />
        </mxCell>
        <mxCell id="XZzwt_6UTUMo6Vn4I3hD-15" value="&lt;font style=&quot;font-size: 12px;&quot;&gt;Manufacturing plant, anomaly type, &lt;br style=&quot;&quot;&gt;hw device, managed object&lt;/font&gt;" style="html=1;verticalAlign=bottom;endArrow=open;dashed=1;endSize=8;edgeStyle=elbowEdgeStyle;elbow=vertical;curved=0;rounded=0;fontSize=16;" parent="1" source="XZzwt_6UTUMo6Vn4I3hD-6" edge="1">
          <mxGeometry x="-0.0053" relative="1" as="geometry">
            <mxPoint x="156" y="646" as="targetPoint" />
            <Array as="points">
              <mxPoint x="251" y="646" />
            </Array>
            <mxPoint x="326" y="646" as="sourcePoint" />
            <mxPoint as="offset" />
          </mxGeometry>
        </mxCell>
        <mxCell id="XZzwt_6UTUMo6Vn4I3hD-16" value="request anomaly occurence feedback" style="html=1;verticalAlign=bottom;endArrow=block;edgeStyle=elbowEdgeStyle;elbow=vertical;curved=0;rounded=0;fontSize=16;" parent="1" edge="1">
          <mxGeometry relative="1" as="geometry">
            <mxPoint x="155" y="875.9999999999998" as="sourcePoint" />
            <Array as="points">
              <mxPoint x="490" y="876" />
              <mxPoint x="210" y="686" />
              <mxPoint x="320" y="686" />
              <mxPoint x="250" y="606" />
            </Array>
            <mxPoint x="515" y="875.9999999999998" as="targetPoint" />
          </mxGeometry>
        </mxCell>
        <mxCell id="XZzwt_6UTUMo6Vn4I3hD-20" value="[data &amp;gt; 10000]" style="text;html=1;strokeColor=none;fillColor=none;align=center;verticalAlign=middle;whiteSpace=wrap;rounded=0;fontSize=16;" parent="1" vertex="1">
          <mxGeometry x="220" y="755" width="150" height="30" as="geometry" />
        </mxCell>
        <mxCell id="XZzwt_6UTUMo6Vn4I3hD-22" value="device data" style="html=1;verticalAlign=bottom;endArrow=open;edgeStyle=elbowEdgeStyle;elbow=vertical;curved=0;rounded=0;endFill=0;dashed=1;fontSize=16;" parent="1" edge="1">
          <mxGeometry relative="1" as="geometry">
            <mxPoint x="715" y="832" as="sourcePoint" />
            <Array as="points">
              <mxPoint x="580" y="832" />
              <mxPoint x="690" y="832" />
              <mxPoint x="620" y="752" />
            </Array>
            <mxPoint x="155" y="831.9999999999998" as="targetPoint" />
          </mxGeometry>
        </mxCell>
        <mxCell id="XZzwt_6UTUMo6Vn4I3hD-17" value="loop" style="shape=umlFrame;whiteSpace=wrap;html=1;pointerEvents=0;width=90;height=20;fontSize=16;" parent="1" vertex="1">
          <mxGeometry x="130" y="755" width="640" height="167" as="geometry" />
        </mxCell>
        <mxCell id="XZzwt_6UTUMo6Vn4I3hD-30" value="feedback" style="html=1;verticalAlign=bottom;endArrow=open;edgeStyle=elbowEdgeStyle;elbow=vertical;curved=0;rounded=0;endFill=0;dashed=1;fontSize=16;" parent="1" edge="1">
          <mxGeometry relative="1" as="geometry">
            <mxPoint x="515" y="899.9999999999998" as="sourcePoint" />
            <Array as="points">
              <mxPoint x="210" y="900" />
              <mxPoint x="320" y="900" />
              <mxPoint x="250" y="820" />
            </Array>
            <mxPoint x="155" y="900" as="targetPoint" />
          </mxGeometry>
        </mxCell>
        <mxCell id="XZzwt_6UTUMo6Vn4I3hD-31" value="request device data" style="html=1;verticalAlign=bottom;endArrow=block;edgeStyle=elbowEdgeStyle;elbow=vertical;curved=0;rounded=0;fontSize=16;" parent="1" edge="1">
          <mxGeometry relative="1" as="geometry">
            <mxPoint x="160" y="812" as="sourcePoint" />
            <Array as="points">
              <mxPoint x="585" y="812" />
              <mxPoint x="695" y="812" />
              <mxPoint x="625" y="732" />
            </Array>
            <mxPoint x="715" y="811.9999999999998" as="targetPoint" />
          </mxGeometry>
        </mxCell>
        <mxCell id="XZzwt_6UTUMo6Vn4I3hD-32" value=":ML Model" style="shape=umlLifeline;perimeter=lifelinePerimeter;whiteSpace=wrap;html=1;container=0;dropTarget=0;collapsible=0;recursiveResize=0;outlineConnect=0;portConstraint=eastwest;newEdgeStyle={&quot;edgeStyle&quot;:&quot;elbowEdgeStyle&quot;,&quot;elbow&quot;:&quot;vertical&quot;,&quot;curved&quot;:0,&quot;rounded&quot;:0};fillColor=#dae8fc;strokeColor=#6c8ebf;fontSize=16;" parent="1" vertex="1">
          <mxGeometry x="870" y="500" width="100" height="740" as="geometry" />
        </mxCell>
        <mxCell id="XZzwt_6UTUMo6Vn4I3hD-33" value="" style="html=1;points=[];perimeter=orthogonalPerimeter;outlineConnect=0;targetShapes=umlLifeline;portConstraint=eastwest;newEdgeStyle={&quot;edgeStyle&quot;:&quot;elbowEdgeStyle&quot;,&quot;elbow&quot;:&quot;vertical&quot;,&quot;curved&quot;:0,&quot;rounded&quot;:0};fillColor=#fff2cc;strokeColor=#d6b656;fontSize=16;" parent="XZzwt_6UTUMo6Vn4I3hD-32" vertex="1">
          <mxGeometry x="45" y="499" width="10" height="191" as="geometry" />
        </mxCell>
        <mxCell id="XZzwt_6UTUMo6Vn4I3hD-34" value="training ML model" style="html=1;verticalAlign=bottom;endArrow=block;edgeStyle=elbowEdgeStyle;elbow=vertical;curved=0;rounded=0;fontSize=16;" parent="1" edge="1">
          <mxGeometry relative="1" as="geometry">
            <mxPoint x="155" y="1063.9999999999998" as="sourcePoint" />
            <Array as="points">
              <mxPoint x="495" y="1064" />
              <mxPoint x="215" y="874" />
              <mxPoint x="325" y="874" />
              <mxPoint x="255" y="794" />
            </Array>
            <mxPoint x="915" y="1064" as="targetPoint" />
          </mxGeometry>
        </mxCell>
        <mxCell id="XZzwt_6UTUMo6Vn4I3hD-36" value="training finish" style="html=1;verticalAlign=bottom;endArrow=open;edgeStyle=elbowEdgeStyle;elbow=vertical;curved=0;rounded=0;endFill=0;dashed=1;fontSize=16;" parent="1" edge="1">
          <mxGeometry relative="1" as="geometry">
            <mxPoint x="910" y="1090" as="sourcePoint" />
            <Array as="points">
              <mxPoint x="235" y="1090" />
              <mxPoint x="345" y="1090" />
              <mxPoint x="275" y="1010" />
            </Array>
            <mxPoint x="155" y="1089.9999999999998" as="targetPoint" />
          </mxGeometry>
        </mxCell>
        <mxCell id="XZzwt_6UTUMo6Vn4I3hD-39" value="create ML model" style="html=1;verticalAlign=bottom;endArrow=block;edgeStyle=elbowEdgeStyle;elbow=vertical;curved=0;rounded=0;fontSize=16;" parent="1" source="XZzwt_6UTUMo6Vn4I3hD-2" target="XZzwt_6UTUMo6Vn4I3hD-33" edge="1">
          <mxGeometry relative="1" as="geometry">
            <mxPoint x="160" y="1010" as="sourcePoint" />
            <Array as="points">
              <mxPoint x="490" y="1010" />
              <mxPoint x="210" y="820" />
              <mxPoint x="320" y="820" />
              <mxPoint x="250" y="740" />
            </Array>
            <mxPoint x="910" y="1010" as="targetPoint" />
          </mxGeometry>
        </mxCell>
        <mxCell id="XZzwt_6UTUMo6Vn4I3hD-40" value="select algorithm" style="html=1;verticalAlign=bottom;endArrow=block;edgeStyle=elbowEdgeStyle;elbow=vertical;curved=0;rounded=0;fontSize=16;" parent="1" edge="1">
          <mxGeometry x="-0.5637" y="10" relative="1" as="geometry">
            <mxPoint x="210" y="690" as="sourcePoint" />
            <Array as="points">
              <mxPoint x="482" y="728" />
              <mxPoint x="507" y="842" />
              <mxPoint x="617" y="842" />
              <mxPoint x="547" y="762" />
            </Array>
            <mxPoint x="156.32352941176464" y="727.9999999999998" as="targetPoint" />
            <mxPoint as="offset" />
          </mxGeometry>
        </mxCell>
        <mxCell id="XZzwt_6UTUMo6Vn4I3hD-41" value="" style="endArrow=none;html=1;rounded=0;entryX=0.5;entryY=0.182;entryDx=0;entryDy=0;entryPerimeter=0;fontSize=16;" parent="1" edge="1">
          <mxGeometry width="50" height="50" relative="1" as="geometry">
            <mxPoint x="210" y="690" as="sourcePoint" />
            <mxPoint x="155" y="690.12" as="targetPoint" />
          </mxGeometry>
        </mxCell>
        <mxCell id="XZzwt_6UTUMo6Vn4I3hD-42" value="evaluate model" style="html=1;verticalAlign=bottom;endArrow=block;edgeStyle=elbowEdgeStyle;elbow=vertical;curved=0;rounded=0;fontSize=16;" parent="1" source="XZzwt_6UTUMo6Vn4I3hD-2" target="XZzwt_6UTUMo6Vn4I3hD-33" edge="1">
          <mxGeometry relative="1" as="geometry">
            <mxPoint x="160" y="1149.9999999999998" as="sourcePoint" />
            <Array as="points">
              <mxPoint x="500" y="1150" />
              <mxPoint x="220" y="960" />
              <mxPoint x="330" y="960" />
              <mxPoint x="260" y="880" />
            </Array>
            <mxPoint x="920" y="1150" as="targetPoint" />
          </mxGeometry>
        </mxCell>
        <mxCell id="XZzwt_6UTUMo6Vn4I3hD-43" value="prediction accuracy" style="html=1;verticalAlign=bottom;endArrow=open;edgeStyle=elbowEdgeStyle;elbow=vertical;curved=0;rounded=0;endFill=0;dashed=1;fontSize=16;" parent="1" source="XZzwt_6UTUMo6Vn4I3hD-33" target="XZzwt_6UTUMo6Vn4I3hD-2" edge="1">
          <mxGeometry relative="1" as="geometry">
            <mxPoint x="920" y="1100" as="sourcePoint" />
            <Array as="points">
              <mxPoint x="600" y="1180" />
              <mxPoint x="500" y="1170" />
              <mxPoint x="245" y="1100" />
              <mxPoint x="355" y="1100" />
              <mxPoint x="285" y="1020" />
            </Array>
            <mxPoint x="165" y="1099.9999999999998" as="targetPoint" />
          </mxGeometry>
        </mxCell>
      </root>
    </mxGraphModel>
  </diagram>
</mxfile>
